<svg xmlns="http://www.w3.org/2000/svg" viewBox="0 0 48 48">
  <g fill="none" stroke="#fff" stroke-width="1">
    <path d="M10.56,10.56 h26.88 v26.88 h-26.88 Z"/>
    <path d="M17.28,17.28 h13.44 v13.44 h-13.44 Z" stroke-width="0.6"/>
    <line x1="15.94" y1="10.56" x2="15.94" y2="5.76" stroke-width="0.7"/>
    <line x1="15.94" y1="37.44" x2="15.94" y2="42.24" stroke-width="0.7"/>
    <line x1="10.56" y1="15.94" x2="5.76" y2="15.94" stroke-width="0.7"/>
    <line x1="37.44" y1="15.94" x2="42.24" y2="15.94" stroke-width="0.7"/>
    <line x1="21.31" y1="10.56" x2="21.31" y2="5.76" stroke-width="0.7"/>
    <line x1="21.31" y1="37.44" x2="21.31" y2="42.24" stroke-width="0.7"/>
    <line x1="10.56" y1="21.31" x2="5.76" y2="21.31" stroke-width="0.7"/>
    <line x1="37.44" y1="21.31" x2="42.24" y2="21.31" stroke-width="0.7"/>
    <line x1="26.69" y1="10.56" x2="26.69" y2="5.76" stroke-width="0.7"/>
    <line x1="26.69" y1="37.44" x2="26.69" y2="42.24" stroke-width="0.7"/>
    <line x1="10.56" y1="26.69" x2="5.76" y2="26.69" stroke-width="0.7"/>
    <line x1="37.44" y1="26.69" x2="42.24" y2="26.69" stroke-width="0.7"/>
    <line x1="32.06" y1="10.56" x2="32.06" y2="5.76" stroke-width="0.7"/>
    <line x1="32.06" y1="37.44" x2="32.06" y2="42.24" stroke-width="0.7"/>
    <line x1="10.56" y1="32.06" x2="5.76" y2="32.06" stroke-width="0.7"/>
    <line x1="37.44" y1="32.06" x2="42.24" y2="32.06" stroke-width="0.7"/>
    <circle cx="19.97" cy="19.97" r="1.5" fill="#fff"/>
  </g>
</svg>
