<svg xmlns="http://www.w3.org/2000/svg" viewBox="0 0 48 48">
  <g fill="none" stroke="#fff" stroke-width="1">
    <path d="M24,2 L19.64,4.2 L16.23,6.4 L14.52,8.6 L14.87,10.8 L17.21,13 L21.03,15.2 L25.5,17.4 L29.64,19.6 L32.55,21.8 L33.6,24 L32.55,26.2 L29.64,28.4 L25.5,30.6 L21.03,32.8 L17.21,35 L14.87,37.2 L14.52,39.4 L16.23,41.6 L19.64,43.8 L24,46" fill="none"/>
    <path d="M24,2 L28.36,4.2 L31.77,6.4 L33.48,8.6 L33.13,10.8 L30.79,13 L26.97,15.2 L22.5,17.4 L18.36,19.6 L15.45,21.8 L14.4,24 L15.45,26.2 L18.36,28.4 L22.5,30.6 L26.97,32.8 L30.79,35 L33.13,37.2 L33.48,39.4 L31.77,41.6 L28.36,43.8 L24,46" fill="none"/>
    <line x1="24" y1="2" x2="24" y2="2" stroke-width="0.6"/>
    <line x1="33.13" y1="10.8" x2="14.87" y2="10.8" stroke-width="0.6"/>
    <line x1="18.36" y1="19.6" x2="29.64" y2="19.6" stroke-width="0.6"/>
    <line x1="18.36" y1="28.4" x2="29.64" y2="28.4" stroke-width="0.6"/>
    <line x1="33.13" y1="37.2" x2="14.87" y2="37.2" stroke-width="0.6"/>
    <line x1="24" y1="46" x2="24" y2="46" stroke-width="0.6"/>
  </g>
</svg>
