<svg xmlns="http://www.w3.org/2000/svg" viewBox="0 0 48 48">
  <g fill="none" stroke="#fff" stroke-width="1">
    <polygon points="24,2 35,4.95 43.05,13 46,24 43.05,35 35,43.05 24,46 13,43.05 4.95,35 2,24 4.95,13 13,4.95"/>
    <polygon points="26.85,13.37 31.78,16.22 34.63,21.15 34.63,26.85 31.78,31.78 26.85,34.63 21.15,34.63 16.22,31.78 13.37,26.85 13.37,21.15 16.22,16.22 21.15,13.37"/>
    <line x1="24" y1="2" x2="26.85" y2="13.37" stroke-width="0.4"/>
    <line x1="35" y1="4.95" x2="31.78" y2="16.22" stroke-width="0.4"/>
    <line x1="43.05" y1="13" x2="34.63" y2="21.15" stroke-width="0.4"/>
    <line x1="46" y1="24" x2="34.63" y2="26.85" stroke-width="0.4"/>
    <line x1="43.05" y1="35" x2="31.78" y2="31.78" stroke-width="0.4"/>
    <line x1="35" y1="43.05" x2="26.85" y2="34.63" stroke-width="0.4"/>
    <line x1="24" y1="46" x2="21.15" y2="34.63" stroke-width="0.4"/>
    <line x1="13" y1="43.05" x2="16.22" y2="31.78" stroke-width="0.4"/>
    <line x1="4.95" y1="35" x2="13.37" y2="26.85" stroke-width="0.4"/>
    <line x1="2" y1="24" x2="13.37" y2="21.15" stroke-width="0.4"/>
    <line x1="4.95" y1="13" x2="16.22" y2="16.22" stroke-width="0.4"/>
    <line x1="13" y1="4.95" x2="21.15" y2="13.37" stroke-width="0.4"/>
    <circle cx="24" cy="24" r="2" fill="#fff"/>
  </g>
</svg>
