<svg xmlns="http://www.w3.org/2000/svg" viewBox="0 0 48 48">
  <g fill="none" stroke="#fff" stroke-width="1">
    <circle cx="24" cy="24" r="22"/>
    <path d="M24,2 L43.05,35 L4.95,35 Z"/>
    <line x1="38.14" y1="7.15" x2="31.52" y2="44.67"/>
    <line x1="31.52" y1="44.67" x2="45.67" y2="20.18"/>
    <line x1="45.67" y1="20.18" x2="9.86" y2="7.15"/>
    <line x1="9.86" y1="7.15" x2="16.48" y2="44.67"/>
    <line x1="16.48" y1="44.67" x2="2.33" y2="20.18"/>
    <line x1="2.33" y1="20.18" x2="38.14" y2="7.15"/>
    <circle cx="24" cy="2" r="1.2" fill="#fff"/>
    <circle cx="38.14" cy="7.15" r="1.2" fill="#fff"/>
    <circle cx="45.67" cy="20.18" r="1.2" fill="#fff"/>
    <circle cx="43.05" cy="35" r="1.2" fill="#fff"/>
    <circle cx="31.52" cy="44.67" r="1.2" fill="#fff"/>
    <circle cx="16.48" cy="44.67" r="1.2" fill="#fff"/>
    <circle cx="4.95" cy="35" r="1.2" fill="#fff"/>
    <circle cx="2.33" cy="20.18" r="1.2" fill="#fff"/>
    <circle cx="9.86" cy="7.15" r="1.2" fill="#fff"/>
  </g>
</svg>
