<svg xmlns="http://www.w3.org/2000/svg" viewBox="0 0 48 48">
  <g fill="none" stroke="#fff" stroke-width="1">
    <path d="M24,4.449999999999999 L45.16,36.65 L2.84,36.65 Z"/>
    <circle cx="24" cy="25.15" r="6.9"/>
    <circle cx="24" cy="25.15" r="2.76" fill="#fff"/>
    <line x1="24" y1="6.75" x2="24" y2="-1.3" stroke-width="0.4"/>
    <line x1="30.33" y1="8.44" x2="34.35" y2="1.47" stroke-width="0.4"/>
    <line x1="34.96" y1="13.08" x2="41.93" y2="9.05" stroke-width="0.4"/>
    <line x1="36.65" y1="19.4" x2="44.7" y2="19.4" stroke-width="0.4"/>
    <line x1="34.96" y1="25.73" x2="41.93" y2="29.75" stroke-width="0.4"/>
    <line x1="30.33" y1="30.36" x2="34.35" y2="37.33" stroke-width="0.4"/>
    <line x1="24" y1="32.05" x2="24" y2="40.1" stroke-width="0.4"/>
    <line x1="17.68" y1="30.36" x2="13.65" y2="37.33" stroke-width="0.4"/>
    <line x1="13.04" y1="25.73" x2="6.07" y2="29.75" stroke-width="0.4"/>
    <line x1="11.35" y1="19.4" x2="3.3" y2="19.4" stroke-width="0.4"/>
    <line x1="13.04" y1="13.07" x2="6.07" y2="9.05" stroke-width="0.4"/>
    <line x1="17.67" y1="8.44" x2="13.65" y2="1.47" stroke-width="0.4"/>
  </g>
</svg>
