<svg xmlns="http://www.w3.org/2000/svg" viewBox="0 0 48 48">
  <g fill="none" stroke="#fff" stroke-width="1">
    <circle cx="24" cy="24" r="23"/>
    <circle cx="-2.56" cy="24" r="7.67"/>
    <circle cx="4.08" cy="35.5" r="7.67"/>
    <circle cx="10.72" cy="47" r="7.67"/>
    <circle cx="4.08" cy="12.5" r="7.67"/>
    <circle cx="10.72" cy="24" r="7.67"/>
    <circle cx="17.36" cy="35.5" r="7.67"/>
    <circle cx="24" cy="47" r="7.67"/>
    <circle cx="10.72" cy="1" r="7.67"/>
    <circle cx="17.36" cy="12.5" r="7.67"/>
    <circle cx="24" cy="24" r="7.67"/>
    <circle cx="30.64" cy="35.5" r="7.67"/>
    <circle cx="37.28" cy="47" r="7.67"/>
    <circle cx="24" cy="1" r="7.67"/>
    <circle cx="30.64" cy="12.5" r="7.67"/>
    <circle cx="37.28" cy="24" r="7.67"/>
    <circle cx="43.92" cy="35.5" r="7.67"/>
    <circle cx="37.28" cy="1" r="7.67"/>
    <circle cx="43.92" cy="12.5" r="7.67"/>
    <circle cx="50.56" cy="24" r="7.67"/>
  </g>
</svg>
