<svg xmlns="http://www.w3.org/2000/svg" viewBox="0 0 48 48">
  <g fill="none" stroke="#fff" stroke-width="1">
    <polygon points="19.61,9.53 19.9,3.4 28.1,3.4 28.39,9.53 31.13,10.67 35.67,6.54 41.46,12.33 37.33,16.87 38.47,19.61 44.6,19.9 44.6,28.1 38.47,28.39 37.33,31.13 41.46,35.67 35.67,41.46 31.13,37.33 28.39,38.47 28.1,44.6 19.9,44.6 19.61,38.47 16.87,37.33 12.33,41.46 6.54,35.67 10.67,31.13 9.53,28.39 3.4,28.1 3.4,19.9 9.53,19.61 10.67,16.87 6.54,12.33 12.33,6.54 16.87,10.67"/>
    <circle cx="24" cy="24" r="6.05"/>
    <circle cx="24" cy="24" r="2" fill="#fff"/>
  </g>
</svg>
