<svg xmlns="http://www.w3.org/2000/svg" viewBox="0 0 48 48">
  <g fill="none" stroke="#fff" stroke-width="1">
    <circle cx="24" cy="24" r="22"/>
    <path d="M44.9,24 L44.79,24.36 L44.67,24.72 L44.54,25.08 L44.41,25.43 L44.27,25.77 L44.13,26.12 L43.98,26.45 L43.83,26.79 L43.67,27.12 L43.51,27.44 L43.34,27.76 L43.17,28.08 L43,28.39 L42.82,28.69 L42.63,28.99 L42.44,29.29 L42.25,29.58 L42.05,29.87 L41.85,30.15 L41.65,30.42 L41.44,30.69 L41.23,30.96 L41.01,31.22 L40.79,31.48 L40.57,31.73 L40.35,31.97 L40.12,32.21 L39.89,32.45 L39.65,32.68 L39.42,32.9 L39.18,33.12 L38.94,33.33 L38.69,33.54 L38.45,33.74 L38.2,33.94 L37.95,34.13 L37.7,34.32 L37.44,34.5 L37.19,34.68 L36.93,34.85 L36.67,35.01 L36.41,35.17 L36.15,35.33 L35.88,35.47 L35.62,35.62 L35.35,35.76 L35.09,35.89 L34.82,36.02 L34.55,36.14 L34.28,36.25 L34.01,36.37 L33.74,36.47 L33.47,36.57 L33.2,36.67 L32.93,36.76 L32.66,36.84 L32.39,36.92 L32.12,37 L31.85,37.07 L31.58,37.13 L31.31,37.19 L31.04,37.25 L30.77,37.3 L30.51,37.34 L30.24,37.38 L29.97,37.42 L29.71,37.45 L29.44,37.47 L29.18,37.49 L28.92,37.51 L28.66,37.52 L28.39,37.53 L28.14,37.53 L27.88,37.53 L27.62,37.52 L27.37,37.51 L27.11,37.49 L26.86,37.47 L26.61,37.45 L26.37,37.42 L26.12,37.39 L25.88,37.35 L25.63,37.31 L25.39,37.26 L25.16,37.22 L24.92,37.16 L24.69,37.11 L24.46,37.05 L24.23,36.98 L24,36.92 L23.78,36.85 L23.55,36.77 L23.33,36.69 L23.12,36.61 L22.9,36.53 L22.69,36.44 L22.48,36.35 L22.28,36.26 L22.07,36.16 L21.87,36.06 L21.68,35.96 L21.48,35.85 L21.29,35.74 L21.1,35.63 L20.91,35.52 L20.73,35.4 L20.55,35.28 L20.37,35.16 L20.2,35.03 L20.03,34.91 L19.86,34.78 L19.7,34.65 L19.54,34.51 L19.38,34.38 L19.22,34.24 L19.07,34.1 L18.92,33.96 L18.78,33.82 L18.64,33.67 L18.5,33.53 L18.36,33.38 L18.23,33.23 L18.1,33.08 L17.98,32.93 L17.86,32.78 L17.74,32.62 L17.62,32.46 L17.51,32.31 L17.4,32.15 L17.3,31.99 L17.19,31.83 L17.1,31.67 L17,31.51 L16.91,31.34 L16.82,31.18 L16.73,31.02 L16.65,30.85 L16.57,30.69 L16.5,30.52 L16.43,30.36 L16.36,30.19 L16.29,30.02 L16.23,29.86 L16.17,29.69 L16.11,29.52 L16.06,29.35 L16.01,29.19 L15.97,29.02 L15.92,28.85 L15.88,28.69 L15.85,28.52 L15.81,28.35 L15.78,28.19 L15.75,28.02 L15.73,27.86 L15.71,27.69 L15.69,27.53 L15.67,27.36 L15.66,27.2 L15.65,27.04 L15.64,26.88 L15.64,26.72 L15.64,26.56 L15.64,26.4 L15.65,26.24 L15.65,26.08 L15.66,25.93 L15.67,25.77 L15.69,25.62 L15.71,25.46 L15.73,25.31 L15.75,25.16 L15.77,25.01 L15.8,24.86 L15.83,24.71 L15.86,24.57 L15.9,24.42 L15.94,24.28 L15.98,24.14 L16.02,24 L16.06,23.86 L16.11,23.72 L16.15,23.59 L16.2,23.45 L16.26,23.32 L16.31,23.19 L16.37,23.06 L16.43,22.94 L16.49,22.81 L16.55,22.69 L16.61,22.56 L16.68,22.44 L16.74,22.32 L16.81,22.21 L16.88,22.09 L16.96,21.98 L17.03,21.87 L17.1,21.76 L17.18,21.65 L17.26,21.55 L17.34,21.44 L17.42,21.34 L17.5,21.24 L17.59,21.14 L17.67,21.05 L17.76,20.95 L17.84,20.86 L17.93,20.77 L18.02,20.69 L18.11,20.6 L18.2,20.52 L18.29,20.43 L18.39,20.36 L18.48,20.28 L18.58,20.2 L18.67,20.13 L18.77,20.06 L18.87,19.99 L18.96,19.92 L19.06,19.86 L19.16,19.79 L19.26,19.73 L19.36,19.67 L19.46,19.62 L19.56,19.56 L19.66,19.51 L19.77,19.46 L19.87,19.41 L19.97,19.36 L20.07,19.32 L20.18,19.28 L20.28,19.24 L20.38,19.2 L20.48,19.16 L20.59,19.13 L20.69,19.09 L20.79,19.06 L20.9,19.04 L21,19.01 L21.1,18.98 L21.21,18.96 L21.31,18.94 L21.41,18.92 L21.51,18.9 L21.62,18.89 L21.72,18.88 L21.82,18.86 L21.92,18.85 L22.02,18.85 L22.12,18.84 L22.22,18.84 L22.32,18.83 L22.42,18.83 L22.52,18.83 L22.62,18.84 L22.71,18.84 L22.81,18.85 L22.91,18.85 L23,18.86 L23.1,18.87 L23.19,18.89 L23.28,18.9 L23.38,18.92 L23.47,18.93 L23.56,18.95 L23.65,18.97 L23.74,18.99 L23.83,19.02 L23.91,19.04 L24,19.07" fill="none"/>
  </g>
</svg>
