<svg xmlns="http://www.w3.org/2000/svg" viewBox="0 0 48 48">
  <g fill="none" stroke="#fff" stroke-width="1">
    <polygon points="7.75,0.24 10.5,5 7.75,9.76 2.25,9.76 -0.5,5 2.25,0.24"/>
    <polygon points="17.28,0.24 20.03,5 17.28,9.76 11.78,9.76 9.03,5 11.78,0.24"/>
    <polygon points="26.8,0.24 29.55,5 26.8,9.76 21.3,9.76 18.55,5 21.3,0.24"/>
    <polygon points="36.33,0.24 39.08,5 36.33,9.76 30.83,9.76 28.08,5 30.83,0.24"/>
    <polygon points="45.86,0.24 48.61,5 45.86,9.76 40.36,9.76 37.61,5 40.36,0.24"/>
    <polygon points="12.51,8.49 15.26,13.25 12.51,18.01 7.01,18.01 4.26,13.25 7.01,8.49"/>
    <polygon points="22.04,8.49 24.79,13.25 22.04,18.01 16.54,18.01 13.79,13.25 16.54,8.49"/>
    <polygon points="31.57,8.49 34.32,13.25 31.57,18.01 26.07,18.01 23.32,13.25 26.07,8.49"/>
    <polygon points="41.09,8.49 43.84,13.25 41.09,18.01 35.59,18.01 32.84,13.25 35.59,8.49"/>
    <polygon points="7.75,16.74 10.5,21.5 7.75,26.26 2.25,26.26 -0.5,21.5 2.25,16.74"/>
    <polygon points="17.28,16.74 20.03,21.5 17.28,26.26 11.78,26.26 9.03,21.5 11.78,16.74"/>
    <polygon points="26.8,16.74 29.55,21.5 26.8,26.26 21.3,26.26 18.55,21.5 21.3,16.74"/>
    <polygon points="36.33,16.74 39.08,21.5 36.33,26.26 30.83,26.26 28.08,21.5 30.83,16.74"/>
    <polygon points="45.86,16.74 48.61,21.5 45.86,26.26 40.36,26.26 37.61,21.5 40.36,16.74"/>
    <polygon points="12.51,24.99 15.26,29.75 12.51,34.51 7.01,34.51 4.26,29.75 7.01,24.99"/>
    <polygon points="22.04,24.99 24.79,29.75 22.04,34.51 16.54,34.51 13.79,29.75 16.54,24.99"/>
    <polygon points="31.57,24.99 34.32,29.75 31.57,34.51 26.07,34.51 23.32,29.75 26.07,24.99"/>
    <polygon points="41.09,24.99 43.84,29.75 41.09,34.51 35.59,34.51 32.84,29.75 35.59,24.99"/>
    <polygon points="7.75,33.24 10.5,38 7.75,42.76 2.25,42.76 -0.5,38 2.25,33.24"/>
    <polygon points="17.28,33.24 20.03,38 17.28,42.76 11.78,42.76 9.03,38 11.78,33.24"/>
    <polygon points="26.8,33.24 29.55,38 26.8,42.76 21.3,42.76 18.55,38 21.3,33.24"/>
    <polygon points="36.33,33.24 39.08,38 36.33,42.76 30.83,42.76 28.08,38 30.83,33.24"/>
    <polygon points="45.86,33.24 48.61,38 45.86,42.76 40.36,42.76 37.61,38 40.36,33.24"/>
  </g>
</svg>
