<svg xmlns="http://www.w3.org/2000/svg" viewBox="0 0 48 48">
  <g fill="none" stroke="#fff" stroke-width="1">
    <path d="M22.5,28.13 A4.4,4.4 0 1 1 25.5,28.13"/>
    <path d="M27.01,15.73 A8.8,8.8 0 1 1 20.99,15.73"/>
    <path d="M19.49,36.4 A13.2,13.2 0 1 1 28.51,36.4"/>
    <path d="M30.02,7.46 A17.6,17.6 0 1 1 17.98,7.46"/>
    <path d="M16.48,44.67 A22,22 0 1 1 31.52,44.67"/>
    <line x1="24" y1="28.4" x2="24" y2="32.8"/>
    <line x1="24" y1="15.2" x2="24" y2="10.8"/>
    <line x1="24" y1="37.2" x2="24" y2="41.6"/>
    <line x1="24" y1="6.4" x2="24" y2="2"/>
    <circle cx="24" cy="24" r="2" fill="#fff"/>
  </g>
</svg>
