<svg xmlns="http://www.w3.org/2000/svg" viewBox="0 0 48 48">
  <g fill="none" stroke="#fff" stroke-width="1">
    <path d="M24,24 Q20.72,12.35 24,2 Q27.28,12.35 24,24"/>
    <path d="M24,24 Q29.91,13.44 39.56,8.44 Q34.56,18.09 24,24"/>
    <path d="M24,24 Q35.65,20.72 46,24 Q35.65,27.28 24,24"/>
    <path d="M24,24 Q34.56,29.91 39.56,39.56 Q29.91,34.56 24,24"/>
    <path d="M24,24 Q27.28,35.65 24,46 Q20.72,35.65 24,24"/>
    <path d="M24,24 Q18.09,34.56 8.44,39.56 Q13.44,29.91 24,24"/>
    <path d="M24,24 Q12.35,27.28 2,24 Q12.35,20.72 24,24"/>
    <path d="M24,24 Q13.44,18.09 8.44,8.44 Q18.09,13.44 24,24"/>
    <circle cx="24" cy="24" r="2.64" fill="#fff"/>
  </g>
</svg>
