<svg xmlns="http://www.w3.org/2000/svg" viewBox="0 0 48 48">
  <g fill="none" stroke="#fff" stroke-width="1">
    <circle cx="4" cy="4" r="1.8" fill="#fff"/>
    <circle cx="14" cy="4" r="1.8" fill="#fff"/>
    <circle cx="24" cy="4" r="1.8" fill="#fff"/>
    <circle cx="34" cy="4" r="1.8" fill="#fff"/>
    <circle cx="44" cy="4" r="1.8" fill="#fff"/>
    <circle cx="4" cy="14" r="1.8" fill="#fff"/>
    <circle cx="14" cy="14" r="1.8"/>
    <circle cx="24" cy="14" r="1.8" fill="#fff"/>
    <circle cx="34" cy="14" r="1.8"/>
    <circle cx="44" cy="14" r="1.8"/>
    <circle cx="4" cy="24" r="1.8" fill="#fff"/>
    <circle cx="14" cy="24" r="1.8" fill="#fff"/>
    <circle cx="24" cy="24" r="1.8"/>
    <circle cx="34" cy="24" r="1.8"/>
    <circle cx="44" cy="24" r="1.8" fill="#fff"/>
    <circle cx="4" cy="34" r="1.8" fill="#fff"/>
    <circle cx="14" cy="34" r="1.8"/>
    <circle cx="24" cy="34" r="1.8"/>
    <circle cx="34" cy="34" r="1.8" fill="#fff"/>
    <circle cx="44" cy="34" r="1.8"/>
    <circle cx="4" cy="44" r="1.8" fill="#fff"/>
    <circle cx="14" cy="44" r="1.8"/>
    <circle cx="24" cy="44" r="1.8" fill="#fff"/>
    <circle cx="34" cy="44" r="1.8"/>
    <circle cx="44" cy="44" r="1.8"/>
  </g>
</svg>
