<svg xmlns="http://www.w3.org/2000/svg" viewBox="0 0 48 48">
  <g fill="none" stroke="#fff" stroke-width="1">
    <line x1="24" y1="24" x2="24" y2="15.36" stroke-width="0.4"/>
    <line x1="24" y1="24" x2="31.48" y2="19.68" stroke-width="0.4"/>
    <line x1="24" y1="24" x2="31.48" y2="28.32" stroke-width="0.4"/>
    <line x1="24" y1="24" x2="24" y2="32.64" stroke-width="0.4"/>
    <line x1="24" y1="24" x2="16.52" y2="28.32" stroke-width="0.4"/>
    <line x1="24" y1="24" x2="16.52" y2="19.68" stroke-width="0.4"/>
    <line x1="24" y1="24" x2="34.08" y2="6.54" stroke-width="0.4"/>
    <line x1="24" y1="24" x2="44.16" y2="24" stroke-width="0.4"/>
    <line x1="24" y1="24" x2="34.08" y2="41.46" stroke-width="0.4"/>
    <line x1="24" y1="24" x2="13.92" y2="41.46" stroke-width="0.4"/>
    <line x1="24" y1="24" x2="3.84" y2="24" stroke-width="0.4"/>
    <line x1="24" y1="24" x2="13.92" y2="6.54" stroke-width="0.4"/>
    <line x1="24" y1="15.36" x2="31.48" y2="19.68" stroke-width="0.4"/>
    <line x1="24" y1="15.36" x2="31.48" y2="28.32" stroke-width="0.4"/>
    <line x1="24" y1="15.36" x2="24" y2="32.64" stroke-width="0.4"/>
    <line x1="24" y1="15.36" x2="16.52" y2="28.32" stroke-width="0.4"/>
    <line x1="24" y1="15.36" x2="16.52" y2="19.68" stroke-width="0.4"/>
    <line x1="24" y1="15.36" x2="34.08" y2="6.54" stroke-width="0.4"/>
    <line x1="24" y1="15.36" x2="44.16" y2="24" stroke-width="0.4"/>
    <line x1="24" y1="15.36" x2="34.08" y2="41.46" stroke-width="0.4"/>
    <line x1="24" y1="15.36" x2="13.92" y2="41.46" stroke-width="0.4"/>
    <line x1="24" y1="15.36" x2="3.84" y2="24" stroke-width="0.4"/>
    <line x1="24" y1="15.36" x2="13.92" y2="6.54" stroke-width="0.4"/>
    <line x1="31.48" y1="19.68" x2="31.48" y2="28.32" stroke-width="0.4"/>
    <line x1="31.48" y1="19.68" x2="24" y2="32.64" stroke-width="0.4"/>
    <line x1="31.48" y1="19.68" x2="16.52" y2="28.32" stroke-width="0.4"/>
    <line x1="31.48" y1="19.68" x2="16.52" y2="19.68" stroke-width="0.4"/>
    <line x1="31.48" y1="19.68" x2="34.08" y2="6.54" stroke-width="0.4"/>
    <line x1="31.48" y1="19.68" x2="44.16" y2="24" stroke-width="0.4"/>
    <line x1="31.48" y1="19.68" x2="34.08" y2="41.46" stroke-width="0.4"/>
    <line x1="31.48" y1="19.68" x2="13.92" y2="41.46" stroke-width="0.4"/>
    <line x1="31.48" y1="19.68" x2="3.84" y2="24" stroke-width="0.4"/>
    <line x1="31.48" y1="19.68" x2="13.92" y2="6.54" stroke-width="0.4"/>
    <line x1="31.48" y1="28.32" x2="24" y2="32.64" stroke-width="0.4"/>
    <line x1="31.48" y1="28.32" x2="16.52" y2="28.32" stroke-width="0.4"/>
    <line x1="31.48" y1="28.32" x2="16.52" y2="19.68" stroke-width="0.4"/>
    <line x1="31.48" y1="28.32" x2="34.08" y2="6.54" stroke-width="0.4"/>
    <line x1="31.48" y1="28.32" x2="44.16" y2="24" stroke-width="0.4"/>
    <line x1="31.48" y1="28.32" x2="34.08" y2="41.46" stroke-width="0.4"/>
    <line x1="31.48" y1="28.32" x2="13.92" y2="41.46" stroke-width="0.4"/>
    <line x1="31.48" y1="28.32" x2="3.84" y2="24" stroke-width="0.4"/>
    <line x1="31.48" y1="28.32" x2="13.92" y2="6.54" stroke-width="0.4"/>
    <line x1="24" y1="32.64" x2="16.52" y2="28.32" stroke-width="0.4"/>
    <line x1="24" y1="32.64" x2="16.52" y2="19.68" stroke-width="0.4"/>
    <line x1="24" y1="32.64" x2="34.08" y2="6.54" stroke-width="0.4"/>
    <line x1="24" y1="32.64" x2="44.16" y2="24" stroke-width="0.4"/>
    <line x1="24" y1="32.64" x2="34.08" y2="41.46" stroke-width="0.4"/>
    <line x1="24" y1="32.64" x2="13.92" y2="41.46" stroke-width="0.4"/>
    <line x1="24" y1="32.64" x2="3.84" y2="24" stroke-width="0.4"/>
    <line x1="24" y1="32.64" x2="13.92" y2="6.54" stroke-width="0.4"/>
    <line x1="16.52" y1="28.32" x2="16.52" y2="19.68" stroke-width="0.4"/>
    <line x1="16.52" y1="28.32" x2="34.08" y2="6.54" stroke-width="0.4"/>
    <line x1="16.52" y1="28.32" x2="44.16" y2="24" stroke-width="0.4"/>
    <line x1="16.52" y1="28.32" x2="34.08" y2="41.46" stroke-width="0.4"/>
    <line x1="16.52" y1="28.32" x2="13.92" y2="41.46" stroke-width="0.4"/>
    <line x1="16.52" y1="28.32" x2="3.84" y2="24" stroke-width="0.4"/>
    <line x1="16.52" y1="28.32" x2="13.92" y2="6.54" stroke-width="0.4"/>
    <line x1="16.52" y1="19.68" x2="34.08" y2="6.54" stroke-width="0.4"/>
    <line x1="16.52" y1="19.68" x2="44.16" y2="24" stroke-width="0.4"/>
    <line x1="16.52" y1="19.68" x2="34.08" y2="41.46" stroke-width="0.4"/>
    <line x1="16.52" y1="19.68" x2="13.92" y2="41.46" stroke-width="0.4"/>
    <line x1="16.52" y1="19.68" x2="3.84" y2="24" stroke-width="0.4"/>
    <line x1="16.52" y1="19.68" x2="13.92" y2="6.54" stroke-width="0.4"/>
    <line x1="34.08" y1="6.54" x2="44.16" y2="24" stroke-width="0.4"/>
    <line x1="34.08" y1="6.54" x2="34.08" y2="41.46" stroke-width="0.4"/>
    <line x1="34.08" y1="6.54" x2="13.92" y2="41.46" stroke-width="0.4"/>
    <line x1="34.08" y1="6.54" x2="3.84" y2="24" stroke-width="0.4"/>
    <line x1="34.08" y1="6.54" x2="13.92" y2="6.54" stroke-width="0.4"/>
    <line x1="44.16" y1="24" x2="34.08" y2="41.46" stroke-width="0.4"/>
    <line x1="44.16" y1="24" x2="13.92" y2="41.46" stroke-width="0.4"/>
    <line x1="44.16" y1="24" x2="3.84" y2="24" stroke-width="0.4"/>
    <line x1="44.16" y1="24" x2="13.92" y2="6.54" stroke-width="0.4"/>
    <line x1="34.08" y1="41.46" x2="13.92" y2="41.46" stroke-width="0.4"/>
    <line x1="34.08" y1="41.46" x2="3.84" y2="24" stroke-width="0.4"/>
    <line x1="34.08" y1="41.46" x2="13.92" y2="6.54" stroke-width="0.4"/>
    <line x1="13.92" y1="41.46" x2="3.84" y2="24" stroke-width="0.4"/>
    <line x1="13.92" y1="41.46" x2="13.92" y2="6.54" stroke-width="0.4"/>
    <line x1="3.84" y1="24" x2="13.92" y2="6.54" stroke-width="0.4"/>
    <circle cx="24" cy="24" r="1.44" fill="#fff"/>
    <circle cx="24" cy="15.36" r="1.44" fill="#fff"/>
    <circle cx="31.48" cy="19.68" r="1.44" fill="#fff"/>
    <circle cx="31.48" cy="28.32" r="1.44" fill="#fff"/>
    <circle cx="24" cy="32.64" r="1.44" fill="#fff"/>
    <circle cx="16.52" cy="28.32" r="1.44" fill="#fff"/>
    <circle cx="16.52" cy="19.68" r="1.44" fill="#fff"/>
    <circle cx="34.08" cy="6.54" r="1.44" fill="#fff"/>
    <circle cx="44.16" cy="24" r="1.44" fill="#fff"/>
    <circle cx="34.08" cy="41.46" r="1.44" fill="#fff"/>
    <circle cx="13.92" cy="41.46" r="1.44" fill="#fff"/>
    <circle cx="3.84" cy="24" r="1.44" fill="#fff"/>
    <circle cx="13.92" cy="6.54" r="1.44" fill="#fff"/>
    <circle cx="24" cy="24" r="22.16"/>
  </g>
</svg>
