<svg xmlns="http://www.w3.org/2000/svg" viewBox="0 0 48 48">
  <g fill="none" stroke="#fff" stroke-width="1">
    <polygon points="32.42,3.67 44.33,15.58 44.33,32.42 32.42,44.33 15.58,44.33 3.67,32.42 3.67,15.58 15.58,3.67"/>
    <polygon points="28.21,13.84 34.16,19.79 34.16,28.21 28.21,34.16 19.79,34.16 13.84,28.21 13.84,19.79 19.79,13.84"/>
    <line x1="32.42" y1="3.67" x2="28.21" y2="13.84" stroke-width="0.5"/>
    <line x1="44.33" y1="15.58" x2="34.16" y2="19.79" stroke-width="0.5"/>
    <line x1="44.33" y1="32.42" x2="34.16" y2="28.21" stroke-width="0.5"/>
    <line x1="32.42" y1="44.33" x2="28.21" y2="34.16" stroke-width="0.5"/>
    <line x1="15.58" y1="44.33" x2="19.79" y2="34.16" stroke-width="0.5"/>
    <line x1="3.67" y1="32.42" x2="13.84" y2="28.21" stroke-width="0.5"/>
    <line x1="3.67" y1="15.58" x2="13.84" y2="19.79" stroke-width="0.5"/>
    <line x1="15.58" y1="3.67" x2="19.79" y2="13.84" stroke-width="0.5"/>
  </g>
</svg>
