<svg xmlns="http://www.w3.org/2000/svg" viewBox="0 0 48 48">
  <g fill="none" stroke="#fff" stroke-width="1">
    <path d="M5.76,9.6 h36.48 v28.8 h-36.48 Z"/>
    <line x1="14.88" y1="9.6" x2="14.88" y2="38.4" stroke-width="0.2"/>
    <line x1="24" y1="9.6" x2="24" y2="38.4" stroke-width="0.2"/>
    <line x1="33.12" y1="9.6" x2="33.12" y2="38.4" stroke-width="0.2"/>
    <line x1="5.76" y1="24" x2="42.24" y2="24" stroke-width="0.2"/>
    <path d="M7.76,24 L8.84,21.33 L9.93,18.92 L11.01,17.01 L12.09,15.78 L13.17,15.36 L14.26,15.78 L15.34,17.01 L16.42,18.92 L17.5,21.33 L18.59,24 L19.67,26.67 L20.75,29.08 L21.83,30.99 L22.92,32.22 L24,32.64 L25.08,32.22 L26.17,30.99 L27.25,29.08 L28.33,26.67 L29.41,24 L30.5,21.33 L31.58,18.92 L32.66,17.01 L33.74,15.78 L34.83,15.36 L35.91,15.78 L36.99,17.01 L38.07,18.92 L39.16,21.33 L40.24,24" stroke-width="1.2"/>
  </g>
</svg>
