<svg xmlns="http://www.w3.org/2000/svg" viewBox="0 0 48 48">
  <g fill="none" stroke="#fff" stroke-width="1">
    <circle cx="24" cy="24" r="22"/>
    <polygon points="24,4.2 42.83,17.88 35.64,40.02 12.36,40.02 5.17,17.88"/>
    <polygon points="29.82,15.99 33.42,27.06 24,33.9 14.58,27.06 18.18,15.99"/>
    <line x1="24" y1="4.2" x2="29.82" y2="15.99"/>
    <line x1="24" y1="4.2" x2="18.18" y2="15.99"/>
    <line x1="42.83" y1="17.88" x2="33.42" y2="27.06"/>
    <line x1="42.83" y1="17.88" x2="29.82" y2="15.99"/>
    <line x1="35.64" y1="40.02" x2="24" y2="33.9"/>
    <line x1="35.64" y1="40.02" x2="33.42" y2="27.06"/>
    <line x1="12.36" y1="40.02" x2="14.58" y2="27.06"/>
    <line x1="12.36" y1="40.02" x2="24" y2="33.9"/>
    <line x1="5.17" y1="17.88" x2="18.18" y2="15.99"/>
    <line x1="5.17" y1="17.88" x2="14.58" y2="27.06"/>
  </g>
</svg>
