<svg xmlns="http://www.w3.org/2000/svg" viewBox="0 0 48 48">
  <g fill="none" stroke="#fff" stroke-width="1">
    <line x1="24" y1="24" x2="24" y2="2"/>
    <line x1="24" y1="16.3" x2="20.19" y2="14.1" stroke-width="0.7"/>
    <line x1="24" y1="16.3" x2="27.81" y2="14.1" stroke-width="0.7"/>
    <line x1="24" y1="8.6" x2="20.19" y2="6.4" stroke-width="0.7"/>
    <line x1="24" y1="8.6" x2="27.81" y2="6.4" stroke-width="0.7"/>
    <line x1="24" y1="24" x2="43.05" y2="13"/>
    <line x1="30.67" y1="20.15" x2="30.67" y2="15.75" stroke-width="0.7"/>
    <line x1="30.67" y1="20.15" x2="34.48" y2="22.35" stroke-width="0.7"/>
    <line x1="37.34" y1="16.3" x2="37.34" y2="11.9" stroke-width="0.7"/>
    <line x1="37.34" y1="16.3" x2="41.15" y2="18.5" stroke-width="0.7"/>
    <line x1="24" y1="24" x2="43.05" y2="35"/>
    <line x1="30.67" y1="27.85" x2="34.48" y2="25.65" stroke-width="0.7"/>
    <line x1="30.67" y1="27.85" x2="30.67" y2="32.25" stroke-width="0.7"/>
    <line x1="37.34" y1="31.7" x2="41.15" y2="29.5" stroke-width="0.7"/>
    <line x1="37.34" y1="31.7" x2="37.34" y2="36.1" stroke-width="0.7"/>
    <line x1="24" y1="24" x2="24" y2="46"/>
    <line x1="24" y1="31.7" x2="27.81" y2="33.9" stroke-width="0.7"/>
    <line x1="24" y1="31.7" x2="20.19" y2="33.9" stroke-width="0.7"/>
    <line x1="24" y1="39.4" x2="27.81" y2="41.6" stroke-width="0.7"/>
    <line x1="24" y1="39.4" x2="20.19" y2="41.6" stroke-width="0.7"/>
    <line x1="24" y1="24" x2="4.95" y2="35"/>
    <line x1="17.33" y1="27.85" x2="17.33" y2="32.25" stroke-width="0.7"/>
    <line x1="17.33" y1="27.85" x2="13.52" y2="25.65" stroke-width="0.7"/>
    <line x1="10.66" y1="31.7" x2="10.66" y2="36.1" stroke-width="0.7"/>
    <line x1="10.66" y1="31.7" x2="6.85" y2="29.5" stroke-width="0.7"/>
    <line x1="24" y1="24" x2="4.95" y2="13"/>
    <line x1="17.33" y1="20.15" x2="13.52" y2="22.35" stroke-width="0.7"/>
    <line x1="17.33" y1="20.15" x2="17.33" y2="15.75" stroke-width="0.7"/>
    <line x1="10.66" y1="16.3" x2="6.85" y2="18.5" stroke-width="0.7"/>
    <line x1="10.66" y1="16.3" x2="10.66" y2="11.9" stroke-width="0.7"/>
    <circle cx="24" cy="24" r="2" fill="#fff"/>
  </g>
</svg>
