<svg xmlns="http://www.w3.org/2000/svg" viewBox="0 0 48 48">
  <g fill="none" stroke="#fff" stroke-width="1">
    <path d="M24,24 L24.15,24.03 L24.29,24.1 L24.4,24.23 L24.47,24.39 L24.49,24.59 L24.46,24.79 L24.37,25 L24.21,25.2 L24,25.38 L23.73,25.5 L23.43,25.58 L23.08,25.59 L22.72,25.52 L22.36,25.37 L22.02,25.15 L21.7,24.84 L21.44,24.45 L21.25,24 L21.14,23.5 L21.13,22.95 L21.22,22.4 L21.43,21.84 L21.74,21.31 L22.17,20.82 L22.69,20.41 L23.31,20.09 L24,19.88 L24.74,19.79 L25.52,19.84 L26.29,20.03 L27.04,20.37 L27.75,20.86 L28.37,21.48 L28.88,22.22 L29.27,23.07 L29.5,24 L29.57,24.98 L29.46,25.99 L29.16,26.98 L28.68,27.93 L28.03,28.8 L27.21,29.56 L26.25,30.17 L25.17,30.62 L24,30.88 L22.78,30.92 L21.54,30.75 L20.33,30.35 L19.19,29.73 L18.15,28.91 L17.25,27.9 L16.53,26.72 L16.03,25.41 L15.75,24 L15.72,22.54 L15.96,21.07 L16.46,19.65 L17.21,18.3 L18.21,17.09 L19.42,16.06 L20.81,15.24 L22.36,14.67 L24,14.38 L25.7,14.37 L27.4,14.67 L29.04,15.27 L30.58,16.16 L31.96,17.32 L33.13,18.73 L34.05,20.34 L34.68,22.12 L35,24 L34.98,25.94 L34.62,27.87 L33.92,29.73 L32.89,31.46 L31.56,33.01 L29.96,34.32 L28.13,35.34 L26.12,36.04 L24,36.38 L21.82,36.34 L19.66,35.92 L17.58,35.11 L15.65,33.95 L13.94,32.45 L12.49,30.65 L11.37,28.6 L10.61,26.36 L10.25,24 L10.31,21.59 L10.79,19.19 L11.7,16.9 L13,14.77 L14.67,12.88 L16.67,11.3 L18.93,10.07 L21.4,9.26 L24,8.88 L26.65,8.95 L29.28,9.5 L31.79,10.5 L34.11,11.95 L36.17,13.79 L37.89,15.98 L39.22,18.46 L40.1,21.16 L40.5,24 L40.4,26.89 L39.79,29.75 L38.69,32.48 L37.11,35 L35.1,37.22 L32.71,39.08 L30.01,40.51 L27.08,41.45 L24,41.88 L20.87,41.75 L17.78,41.08 L14.83,39.88 L12.12,38.16 L9.72,35.98 L7.73,33.4 L6.2,30.48 L5.19,27.32 L4.75,24 L4.89,20.63 L5.62,17.31 L6.93,14.15 L8.79,11.23 L11.14,8.67 L13.92,6.54 L17.05,4.91 L20.45,3.84 L24,3.38 L27.61,3.54 L31.16,4.33 L34.54,5.74 L37.65,7.73 L40.38,10.25 L42.66,13.23 L44.39,16.58 L45.52,20.21 L46,24"/>
  </g>
</svg>
