<svg xmlns="http://www.w3.org/2000/svg" viewBox="0 0 48 48">
  <g fill="none" stroke="#fff" stroke-width="1">
    <circle cx="24" cy="24" r="22"/>
    <path d="M24,10.91 L34.75,33.35 L13.25,33.35 Z"/>
    <path d="M24,14.45 L31.84,30.82 L16.16,30.82 Z"/>
    <path d="M24,17.53 L29.31,28.62 L18.69,28.62 Z"/>
    <path d="M24,20.92 L26.53,26.2 L21.47,26.2 Z"/>
    <path d="M24,36.01 L33.87,15.42 L14.13,15.42 Z"/>
    <path d="M24,32.47 L30.96,17.95 L17.04,17.95 Z"/>
    <path d="M24,29.39 L28.43,20.15 L19.57,20.15 Z"/>
    <path d="M24,26.31 L25.9,22.35 L22.1,22.35 Z"/>
    <path d="M24,24.77 L24.63,23.45 L23.37,23.45 Z"/>
    <circle cx="24" cy="24" r="1.5" fill="#fff"/>
  </g>
</svg>
