<svg xmlns="http://www.w3.org/2000/svg" viewBox="0 0 48 48">
  <g fill="none" stroke="#fff" stroke-width="1">
    <polygon points="16,1 32,1 47,14 47,34 32,47 16,47 1,34 1,14"/>
    <polygon points="24,7 29,17 40,17 31,24 34,35 24,28 14,35 17,24 8,17 19,17"/>
    <circle cx="24" cy="24" r="14"/>
    <polygon points="24,12 35.6,18 35.6,30 24,36 12.4,30 12.4,18"/>
    <path d="M14,24 L22,32 L35,16" stroke-width="2.2" stroke-linecap="round" stroke-linejoin="round"/>
    <circle cx="24" cy="24" r="2" fill="#fff"/>
  </g>
</svg>
