<svg xmlns="http://www.w3.org/2000/svg" viewBox="0 0 48 48">
  <g fill="none" stroke="#fff" stroke-width="1">
    <circle cx="24" cy="24" r="5.76" fill="#fff"/>
    <line x1="24" y1="18.24" x2="24" y2="1"/>
    <line x1="26.2" y1="18.68" x2="30.16" y2="9.13"/>
    <line x1="28.07" y1="19.93" x2="40.26" y2="7.74"/>
    <line x1="29.32" y1="21.8" x2="38.87" y2="17.84"/>
    <line x1="29.76" y1="24" x2="47" y2="24"/>
    <line x1="29.32" y1="26.2" x2="38.87" y2="30.16"/>
    <line x1="28.07" y1="28.07" x2="40.26" y2="40.26"/>
    <line x1="26.2" y1="29.32" x2="30.16" y2="38.87"/>
    <line x1="24" y1="29.76" x2="24" y2="47"/>
    <line x1="21.8" y1="29.32" x2="17.84" y2="38.87"/>
    <line x1="19.93" y1="28.07" x2="7.74" y2="40.26"/>
    <line x1="18.68" y1="26.2" x2="9.13" y2="30.16"/>
    <line x1="18.24" y1="24" x2="1" y2="24"/>
    <line x1="18.68" y1="21.8" x2="9.13" y2="17.84"/>
    <line x1="19.93" y1="19.93" x2="7.74" y2="7.74"/>
    <line x1="21.8" y1="18.68" x2="17.84" y2="9.13"/>
    <circle cx="24" cy="24" r="23"/>
  </g>
</svg>
