<svg xmlns="http://www.w3.org/2000/svg" viewBox="0 0 48 48">
  <g fill="none" stroke="#fff" stroke-width="1">
    <circle cx="24" cy="24" r="22.56"/>
    <circle cx="24" cy="24" r="11.04"/>
    <ellipse cx="40.8" cy="24" rx="5.76" ry="2.3" transform="rotate(0 40.8 24)"/>
    <ellipse cx="35.88" cy="35.88" rx="5.76" ry="4.75" transform="rotate(45 35.88 35.88)"/>
    <ellipse cx="24" cy="40.8" rx="5.76" ry="5.76" transform="rotate(90 24 40.8)"/>
    <ellipse cx="12.12" cy="35.88" rx="5.76" ry="4.75" transform="rotate(135 12.12 35.88)"/>
    <ellipse cx="7.2" cy="24" rx="5.76" ry="2.3" transform="rotate(180 7.2 24)"/>
    <ellipse cx="12.12" cy="12.12" rx="5.76" ry="4.75" transform="rotate(225 12.12 12.12)"/>
    <ellipse cx="24" cy="7.2" rx="5.76" ry="5.76" transform="rotate(270 24 7.2)"/>
    <ellipse cx="35.88" cy="12.12" rx="5.76" ry="4.75" transform="rotate(315 35.88 12.12)"/>
  </g>
</svg>
