<svg xmlns="http://www.w3.org/2000/svg" viewBox="0 0 48 48">
  <g fill="none" stroke="#fff" stroke-width="1">
    <line x1="24" y1="4" x2="16" y2="12" stroke-width="0.5"/>
    <line x1="24" y1="4" x2="32" y2="12" stroke-width="0.5"/>
    <line x1="16" y1="12" x2="32" y2="12" stroke-width="0.5"/>
    <line x1="16" y1="12" x2="24" y2="16" stroke-width="0.5"/>
    <line x1="32" y1="12" x2="24" y2="16" stroke-width="0.5"/>
    <line x1="16" y1="12" x2="16" y2="24" stroke-width="0.5"/>
    <line x1="32" y1="12" x2="32" y2="24" stroke-width="0.5"/>
    <line x1="24" y1="16" x2="16" y2="24" stroke-width="0.5"/>
    <line x1="24" y1="16" x2="32" y2="24" stroke-width="0.5"/>
    <line x1="16" y1="24" x2="32" y2="24" stroke-width="0.5"/>
    <line x1="16" y1="24" x2="24" y2="28" stroke-width="0.5"/>
    <line x1="32" y1="24" x2="24" y2="28" stroke-width="0.5"/>
    <line x1="16" y1="24" x2="16" y2="36" stroke-width="0.5"/>
    <line x1="32" y1="24" x2="32" y2="36" stroke-width="0.5"/>
    <line x1="24" y1="28" x2="16" y2="36" stroke-width="0.5"/>
    <line x1="24" y1="28" x2="32" y2="36" stroke-width="0.5"/>
    <line x1="16" y1="36" x2="32" y2="36" stroke-width="0.5"/>
    <line x1="16" y1="36" x2="24" y2="44" stroke-width="0.5"/>
    <line x1="32" y1="36" x2="24" y2="44" stroke-width="0.5"/>
    <line x1="24" y1="28" x2="24" y2="44" stroke-width="0.5"/>
    <circle cx="24" cy="4" r="3.5"/>
    <circle cx="16" cy="12" r="3.5"/>
    <circle cx="32" cy="12" r="3.5"/>
    <circle cx="24" cy="16" r="3.5"/>
    <circle cx="16" cy="24" r="3.5"/>
    <circle cx="32" cy="24" r="3.5"/>
    <circle cx="24" cy="28" r="3.5"/>
    <circle cx="16" cy="36" r="3.5"/>
    <circle cx="32" cy="36" r="3.5"/>
    <circle cx="24" cy="44" r="3.5"/>
  </g>
</svg>
