<svg xmlns="http://www.w3.org/2000/svg" viewBox="0 0 48 48">
  <g fill="none" stroke="#fff" stroke-width="1">
    <circle cx="24" cy="24" r="22"/>
    <path d="M45,24 L44.26,27.21 L43.04,30.19 L41.4,32.87 L39.4,35.19 L37.12,37.12 L34.62,38.61 L31.98,39.65 L29.28,40.24 L26.6,40.39 L24,40.1 L21.56,39.42 L19.33,38.38 L17.36,37.04 L15.69,35.44 L14.35,33.65 L13.35,31.74 L12.71,29.75 L12.42,27.76 L12.45,25.83 L12.8,24 L13.42,22.32 L14.28,20.84 L15.33,19.58 L16.52,18.57 L17.81,17.81 L19.14,17.32 L20.47,17.08 L21.75,17.08 L22.94,17.29 L24,17.7"/>
    <path d="M13.5,42.19 L11.09,39.94 L9.12,37.4 L7.62,34.64 L6.61,31.74 L6.08,28.8 L6.04,25.89 L6.45,23.08 L7.29,20.45 L8.51,18.05 L10.06,15.95 L11.87,14.18 L13.88,12.76 L16.03,11.73 L18.25,11.08 L20.47,10.82 L22.62,10.91 L24.66,11.35 L26.53,12.09 L28.19,13.09 L29.6,14.3 L30.74,15.68 L31.59,17.16 L32.16,18.7 L32.44,20.24 L32.45,21.74 L32.21,23.14 L31.76,24.41 L31.12,25.51 L30.34,26.43 L29.46,27.15"/>
    <path d="M13.5,5.81 L16.65,4.85 L19.84,4.42 L22.98,4.5 L25.99,5.06 L28.8,6.08 L31.35,7.5 L33.57,9.26 L35.43,11.31 L36.89,13.56 L37.94,15.95 L38.57,18.41 L38.79,20.86 L38.61,23.23 L38.06,25.48 L37.18,27.53 L36.02,29.35 L34.63,30.9 L33.05,32.15 L31.36,33.08 L29.6,33.7 L27.84,34 L26.12,34 L24.51,33.72 L23.03,33.19 L21.74,32.45 L20.64,31.55 L19.77,30.52 L19.13,29.41 L18.72,28.27 L18.54,27.15"/>
    <circle cx="24" cy="24" r="2" fill="#fff"/>
  </g>
</svg>
