<svg xmlns="http://www.w3.org/2000/svg" viewBox="0 0 48 48">
  <g fill="none" stroke="#fff" stroke-width="1">
    <path d="M1,24 L1.77,21.51 L2.53,19.12 L3.3,16.95 L4.07,15.08 L4.83,13.61 L5.6,12.59 L6.37,12.07 L7.13,12.07 L7.9,12.59 L8.67,13.61 L9.43,15.08 L10.2,16.95 L10.97,19.12 L11.73,21.51 L12.5,24 L13.27,26.49 L14.03,28.88 L14.8,31.05 L15.57,32.92 L16.33,34.39 L17.1,35.41 L17.87,35.93 L18.63,35.93 L19.4,35.41 L20.17,34.39 L20.93,32.92 L21.7,31.05 L22.47,28.88 L23.23,26.49 L24,24 L24.77,21.51 L25.53,19.12 L26.3,16.95 L27.07,15.08 L27.83,13.61 L28.6,12.59 L29.37,12.07 L30.13,12.07 L30.9,12.59 L31.67,13.61 L32.43,15.08 L33.2,16.95 L33.97,19.12 L34.73,21.51 L35.5,24 L36.27,26.49 L37.03,28.88 L37.8,31.05 L38.57,32.92 L39.33,34.39 L40.1,35.41 L40.87,35.93 L41.63,35.93 L42.4,35.41 L43.17,34.39 L43.93,32.92 L44.7,31.05 L45.47,28.88 L46.23,26.49 L47,24" fill="none"/>
    <path d="M1,24 L1.77,26.49 L2.53,28.88 L3.3,31.05 L4.07,32.92 L4.83,34.39 L5.6,35.41 L6.37,35.93 L7.13,35.93 L7.9,35.41 L8.67,34.39 L9.43,32.92 L10.2,31.05 L10.97,28.88 L11.73,26.49 L12.5,24 L13.27,21.51 L14.03,19.12 L14.8,16.95 L15.57,15.08 L16.33,13.61 L17.1,12.59 L17.87,12.07 L18.63,12.07 L19.4,12.59 L20.17,13.61 L20.93,15.08 L21.7,16.95 L22.47,19.12 L23.23,21.51 L24,24 L24.77,26.49 L25.53,28.88 L26.3,31.05 L27.07,32.92 L27.83,34.39 L28.6,35.41 L29.37,35.93 L30.13,35.93 L30.9,35.41 L31.67,34.39 L32.43,32.92 L33.2,31.05 L33.97,28.88 L34.73,26.49 L35.5,24 L36.27,21.51 L37.03,19.12 L37.8,16.95 L38.57,15.08 L39.33,13.61 L40.1,12.59 L40.87,12.07 L41.63,12.07 L42.4,12.59 L43.17,13.61 L43.93,15.08 L44.7,16.95 L45.47,19.12 L46.23,21.51 L47,24" fill="none"/>
    <circle cx="24" cy="24" r="23"/>
  </g>
</svg>
